HIERARCHY
ROOT joint_Root
{
	OFFSET 0.0 0.0 0.0
	CHANNELS 6 Xposition Yposition Zposition Zrotation Xrotation Yrotation 
	JOINT Hips
	{
		OFFSET -0.726466 93.3139 -2.00062
		CHANNELS 6 Xposition Yposition Zposition Zrotation Xrotation Yrotation 
		JOINT Spine
		{
			OFFSET 15.7357 0.0 0.0
			CHANNELS 6 Xposition Yposition Zposition Zrotation Xrotation Yrotation 
			JOINT Chest
			{
				OFFSET 8.98455 -0.406207 0.0
				CHANNELS 6 Xposition Yposition Zposition Zrotation Xrotation Yrotation 
				JOINT Neck
				{
					OFFSET 16.3773 0.0 0.0
					CHANNELS 6 Xposition Yposition Zposition Zrotation Xrotation Yrotation 
					JOINT Head
					{
						OFFSET 6.45672 0.0 0.0
						CHANNELS 6 Xposition Yposition Zposition Zrotation Xrotation Yrotation 
						End Site
						{
							OFFSET 0.0 0.0 0.0
						}
					}
				}
				JOINT Shoulder_L
				{
					OFFSET 12.9942 -0.242716 4.98039
					CHANNELS 6 Xposition Yposition Zposition Zrotation Xrotation Yrotation 
					JOINT UpperArm_L
					{
						OFFSET 5.34809 0.0 0.0
						CHANNELS 6 Xposition Yposition Zposition Zrotation Xrotation Yrotation 
						JOINT LowerArm_L
						{
							OFFSET 24.3286 1.87007e-05 0.0
							CHANNELS 6 Xposition Yposition Zposition Zrotation Xrotation Yrotation 
							JOINT Hand_L
							{
								OFFSET 22.2916 0.0 0.0
								CHANNELS 6 Xposition Yposition Zposition Zrotation Xrotation Yrotation 
								End Site
								{
									OFFSET 0.0 0.0 0.0
								}
							}
						}
					}
				}
				JOINT Shoulder_R
				{
					OFFSET 12.9945 -0.242716 -4.98039
					CHANNELS 6 Xposition Yposition Zposition Zrotation Xrotation Yrotation 
					JOINT UpperArm_R
					{
						OFFSET -5.34813 0.0 0.0
						CHANNELS 6 Xposition Yposition Zposition Zrotation Xrotation Yrotation 
						JOINT LowerArm_R
						{
							OFFSET -24.3289 0.000322201 0.0
							CHANNELS 6 Xposition Yposition Zposition Zrotation Xrotation Yrotation 
							JOINT Hand_R
							{
								OFFSET -22.2915 -0.000108084 0.0
								CHANNELS 6 Xposition Yposition Zposition Zrotation Xrotation Yrotation 
								End Site
								{
									OFFSET 0.0 0.0 0.0
								}
							}
						}
					}
				}
			}
		}
		JOINT UpperLeg_L
		{
			OFFSET -2.19248 -6.46944 0.0
			CHANNELS 6 Xposition Yposition Zposition Zrotation Xrotation Yrotation 
			JOINT LowerLeg_L
			{
				OFFSET 39.0811 0.0 -1.23785e-05
				CHANNELS 6 Xposition Yposition Zposition Zrotation Xrotation Yrotation 
				JOINT Foot_L
				{
					OFFSET 40.9854 0.0 -1.26872e-05
					CHANNELS 6 Xposition Yposition Zposition Zrotation Xrotation Yrotation 
					JOINT Toes_L
					{
						OFFSET 11.7543 0.0 0.0
						CHANNELS 6 Xposition Yposition Zposition Zrotation Xrotation Yrotation 
						End Site
						{
							OFFSET 0.0 0.0 0.0
						}
					}
				}
			}
		}
		JOINT UpperLeg_R
		{
			OFFSET -2.19251 6.46944 0.0
			CHANNELS 6 Xposition Yposition Zposition Zrotation Xrotation Yrotation 
			JOINT LowerLeg_R
			{
				OFFSET -39.0811 -0.00228153 -0.0401928
				CHANNELS 6 Xposition Yposition Zposition Zrotation Xrotation Yrotation 
				JOINT Foot_R
				{
					OFFSET -40.9854 0.0 0.0
					CHANNELS 6 Xposition Yposition Zposition Zrotation Xrotation Yrotation 
					JOINT Toes_R
					{
						OFFSET -11.7543 0.0 0.0
						CHANNELS 6 Xposition Yposition Zposition Zrotation Xrotation Yrotation 
						End Site
						{
							OFFSET 0.0 0.0 0.0
						}
					}
				}
			}
		}
	}
}
MOTION
Frames:	9
Frame Time:	0.0333333
0.000000 0.000000 0.000000 0.000000 0.000000 -0.000000 -0.954169 92.111800 0.759811 88.117600 -2.259440 4.645240 15.735700 0.000005 -0.000001 77.978500 85.728900 -76.574000 8.984550 -0.406207 -0.000000 0.613729 -1.866180 2.817180 16.377300 -0.000001 -0.000001 6.101330 -1.676220 -0.731515 6.456720 -0.000001 -0.000000 4.468260 -0.147567 3.935490 12.994200 -0.242716 4.980390 -88.034600 -6.035520 -71.925200 5.348090 -0.000007 -0.000001 -77.497000 -21.882300 -85.987900 24.328600 0.000019 0.000005 11.899200 -0.771159 -93.654700 22.291600 -0.000001 0.000005 20.006600 5.622060 -12.762700 12.994500 -0.242716 -4.980390 87.863000 6.495880 -71.745400 -5.348130 -0.000001 -0.000004 -65.161100 37.677100 -14.696800 -24.328900 0.000322 -0.000009 2.227980 7.401740 -16.811700 -22.291500 -0.000108 -0.000004 9.708720 5.410450 -3.280230 -2.192480 -6.469440 -0.000000 -175.273000 -6.655350 -0.758306 39.081100 -0.000007 -0.000012 -0.123810 0.292150 22.966800 40.985400 -0.000006 -0.000013 -0.678555 2.321790 -67.646300 11.754300 -0.000000 0.000003 -0.000051 -0.000578 -16.600000 -2.192510 6.469440 -0.000001 179.563000 11.725500 -179.202000 -39.081100 -0.002282 -0.040193 -0.031374 0.093484 20.361600 -40.985400 0.000008 0.000006 3.771090 7.160190 -67.040600 -11.754300 -0.000006 -0.000006 -0.007473 -0.083674 -19.979900
0.000000 0.000000 0.000000 0.000000 0.000000 -0.000000 -0.982747 92.103500 0.723349 88.131400 -2.174740 4.642890 15.735700 0.000005 -0.000001 78.108800 85.721300 -76.726400 8.984550 -0.406207 -0.000000 0.632153 -1.848730 2.773150 16.377300 -0.000001 -0.000001 6.140390 -1.662490 -0.779694 6.456720 -0.000001 -0.000000 4.416480 -0.173022 3.934530 12.994200 -0.242716 4.980390 -88.032400 -6.037210 -71.910200 5.348090 -0.000007 -0.000001 -77.519700 -21.873200 -86.019000 24.328600 0.000019 0.000005 11.955100 -0.773084 -93.646200 22.291600 -0.000001 0.000005 19.921200 5.621650 -12.734400 12.994500 -0.242716 -4.980390 87.849800 6.515010 -71.690500 -5.348130 -0.000001 -0.000004 -65.234400 37.843100 -14.688400 -24.328900 0.000322 -0.000009 2.196890 7.282930 -16.844000 -22.291500 -0.000108 -0.000004 9.712660 5.410480 -3.280970 -2.192480 -6.469440 -0.000000 -175.267000 -6.611930 -0.838278 39.081100 -0.000007 -0.000012 -0.124459 0.292598 23.043000 40.985400 -0.000006 -0.000013 -0.691649 2.362840 -67.648300 11.754300 -0.000000 0.000003 -0.000061 -0.000674 -16.603600 -2.192510 6.469440 -0.000001 179.543000 11.765300 -179.238000 -39.081100 -0.002282 -0.040193 -0.037213 0.108976 20.402700 -40.985400 0.000008 0.000006 3.554830 7.182470 -67.015600 -11.754300 -0.000006 -0.000006 -0.007496 -0.083871 -19.987900
0.000000 0.000000 0.000000 0.000000 0.000000 -0.000000 -1.006210 92.108400 0.700689 88.143100 -2.133100 4.638760 15.735700 0.000005 -0.000001 78.280000 85.713800 -76.914400 8.984550 -0.406207 -0.000000 0.651381 -1.825460 2.739690 16.377300 -0.000001 -0.000001 6.148910 -1.652130 -0.787394 6.456720 -0.000001 -0.000000 4.445040 -0.168215 3.884860 12.994200 -0.242716 4.980390 -88.033000 -6.019920 -71.867500 5.348090 -0.000007 -0.000001 -77.553600 -21.884500 -86.019900 24.328600 0.000019 0.000005 11.830400 -0.765709 -93.650600 22.291600 -0.000001 0.000005 19.854000 5.621760 -12.741800 12.994500 -0.242716 -4.980390 87.863400 6.485690 -71.722200 -5.348130 -0.000001 -0.000004 -65.399400 37.878000 -14.578200 -24.328900 0.000322 -0.000009 2.235460 7.390230 -16.889600 -22.291500 -0.000108 -0.000004 9.720780 5.409470 -3.247680 -2.192480 -6.469440 -0.000000 -175.254000 -6.601920 -0.845830 39.081100 -0.000007 -0.000012 -0.125818 0.296264 23.010200 40.985400 -0.000006 -0.000013 -0.697540 2.429670 -67.613200 11.754300 -0.000000 0.000003 -0.000055 -0.000611 -16.601300 -2.192510 6.469440 -0.000001 179.546000 11.819500 -179.251000 -39.081100 -0.002282 -0.040193 -0.038096 0.111435 20.388300 -40.985400 0.000008 0.000006 3.548950 7.183610 -66.992400 -11.754300 -0.000006 -0.000006 -0.007459 -0.083554 -19.975000
0.000000 0.000000 0.000000 0.000000 0.000000 -0.000000 -1.032170 92.117500 0.665913 88.152700 -2.075980 4.628710 15.735700 0.000005 -0.000001 78.522000 85.706900 -77.174300 8.984550 -0.406207 -0.000000 0.671436 -1.791400 2.704070 16.377300 -0.000001 -0.000001 6.138780 -1.612800 -0.803999 6.456720 -0.000001 -0.000000 4.534170 -0.158636 3.868160 12.994200 -0.242716 4.980390 -88.037600 -6.007020 -71.871200 5.348090 -0.000007 -0.000001 -77.567300 -21.971400 -85.916700 24.328600 0.000019 0.000005 11.758700 -0.775425 -93.719900 22.291600 -0.000001 0.000005 19.753500 5.620160 -12.630600 12.994500 -0.242716 -4.980390 87.856600 6.502290 -71.711100 -5.348130 -0.000001 -0.000004 -65.457900 38.006400 -14.496700 -24.328900 0.000322 -0.000009 2.230980 7.376580 -16.886900 -22.291500 -0.000108 -0.000004 9.744740 5.409170 -3.237920 -2.192480 -6.469440 -0.000000 -175.248000 -6.598450 -0.870055 39.081100 -0.000007 -0.000012 -0.124234 0.293150 22.966800 40.985400 -0.000006 -0.000013 -0.704359 2.480110 -67.557200 11.754300 -0.000000 0.000003 -0.000059 -0.000658 -16.603000 -2.192510 6.469440 -0.000001 179.557000 11.827200 -179.255000 -39.081100 -0.002282 -0.040193 -0.038031 0.111505 20.347400 -40.985400 0.000008 0.000006 3.590490 7.151030 -66.966300 -11.754300 -0.000006 -0.000006 -0.007542 -0.084254 -20.003600
0.000000 0.000000 0.000000 0.000000 0.000000 -0.000000 -1.052360 92.112800 0.650858 88.153200 -2.016670 4.639430 15.735700 0.000005 -0.000001 78.560800 85.692600 -77.228600 8.984550 -0.406207 -0.000000 0.700342 -1.790070 2.673630 16.377300 -0.000001 -0.000001 6.180070 -1.612680 -0.812285 6.456720 -0.000001 -0.000000 4.579850 -0.122287 3.863690 12.994200 -0.242716 4.980390 -88.035000 -6.006950 -71.848100 5.348090 -0.000007 -0.000001 -77.452700 -22.118300 -85.621100 24.328600 0.000019 0.000005 11.533300 -0.787380 -93.852800 22.291600 -0.000001 0.000005 19.684600 5.619660 -12.594800 12.994500 -0.242716 -4.980390 87.857700 6.502830 -71.721500 -5.348130 -0.000001 -0.000004 -65.567000 38.007800 -14.392900 -24.328900 0.000322 -0.000009 2.246470 7.463460 -16.811900 -22.291500 -0.000108 -0.000004 9.718470 5.408980 -3.231480 -2.192480 -6.469440 -0.000000 -175.229000 -6.578150 -0.900296 39.081100 -0.000007 -0.000012 -0.125916 0.296494 23.010200 40.985400 -0.000006 -0.000013 -0.714136 2.510960 -67.561100 11.754300 -0.000000 0.000003 -0.000050 -0.000568 -16.599600 -2.192510 6.469440 -0.000001 179.553000 11.879500 -179.254000 -39.081100 -0.002282 -0.040193 -0.042018 0.122209 20.354800 -40.985400 0.000008 0.000006 3.441910 7.176950 -66.940700 -11.754300 -0.000006 -0.000006 -0.007497 -0.083879 -19.988200
0.000000 0.000000 0.000000 0.000000 0.000000 -0.000000 -1.075520 92.119800 0.625600 88.138700 -1.937620 4.633840 15.735700 0.000005 -0.000001 78.557400 85.683600 -77.227100 8.984550 -0.406207 -0.000000 0.718010 -1.793840 2.669880 16.377300 -0.000001 -0.000001 6.162150 -1.577580 -0.797279 6.456720 -0.000001 -0.000000 4.722720 -0.101240 3.838080 12.994200 -0.242716 4.980390 -88.058000 -5.932920 -71.838400 5.348090 -0.000007 -0.000001 -77.103900 -22.294400 -85.049700 24.328600 0.000019 0.000005 11.321400 -0.823956 -94.108400 22.291600 -0.000001 0.000005 19.489100 5.617750 -12.466600 12.994500 -0.242716 -4.980390 87.856900 6.505260 -71.721800 -5.348130 -0.000001 -0.000004 -65.601300 38.068100 -14.316000 -24.328900 0.000322 -0.000009 2.215840 7.414310 -16.698600 -22.291500 -0.000108 -0.000004 9.718760 5.408760 -3.224370 -2.192480 -6.469440 -0.000000 -175.203000 -6.528060 -0.930245 39.081100 -0.000007 -0.000012 -0.125538 0.295823 22.994900 40.985400 -0.000006 -0.000013 -0.724311 2.538940 -67.524800 11.754300 -0.000000 0.000003 -0.000054 -0.000606 -16.601100 -2.192510 6.469440 -0.000001 179.581000 11.965800 -179.246000 -39.081100 -0.002282 -0.040193 -0.041173 0.120219 20.309900 -40.985400 0.000008 0.000006 3.509000 7.174240 -66.919900 -11.754300 -0.000006 -0.000006 -0.007575 -0.084527 -20.014700
0.000000 0.000000 0.000000 0.000000 0.000000 -0.000000 -1.098020 92.116700 0.608248 88.128500 -1.877080 4.623050 15.735700 0.000005 -0.000001 78.536500 85.675400 -77.205900 8.984550 -0.406207 -0.000000 0.733465 -1.800000 2.671010 16.377300 -0.000001 -0.000001 6.245510 -1.587120 -0.804728 6.456720 -0.000001 -0.000000 4.689000 -0.096444 3.778690 12.994200 -0.242716 4.980390 -88.090900 -5.821980 -71.809200 5.348090 -0.000007 -0.000001 -76.499500 -22.503100 -83.990500 24.328600 0.000019 0.000005 10.885500 -0.897535 -94.657100 22.291600 -0.000001 0.000005 19.220300 5.614680 -12.261100 12.994500 -0.242716 -4.980390 87.841500 6.517360 -71.630300 -5.348130 -0.000001 -0.000004 -65.621900 38.020700 -14.273100 -24.328900 0.000322 -0.000009 2.224790 7.496030 -16.590600 -22.291500 -0.000108 -0.000004 9.646340 5.407400 -3.179350 -2.192480 -6.469440 -0.000000 -175.172000 -6.533000 -0.981414 39.081100 -0.000007 -0.000012 -0.125599 0.295364 23.037100 40.985400 -0.000006 -0.000013 -0.723300 2.617180 -67.527600 11.754300 -0.000000 0.000003 -0.000048 -0.000547 -16.598800 -2.192510 6.469440 -0.000001 179.595000 12.032200 -179.268000 -39.081100 -0.002282 -0.040193 -0.044226 0.128452 20.312100 -40.985400 0.000008 0.000006 3.416320 7.197560 -66.897300 -11.754300 -0.000006 -0.000006 -0.007459 -0.083558 -19.975100
0.000000 0.000000 0.000000 0.000000 0.000000 -0.000000 -1.106840 92.121200 0.607879 88.165700 -1.867750 4.625520 15.735700 0.000005 -0.000001 78.626100 85.665100 -77.308100 8.984550 -0.406207 -0.000000 0.756033 -1.789780 2.645990 16.377300 -0.000001 -0.000001 6.212250 -1.587700 -0.790155 6.456720 -0.000001 -0.000000 4.818280 -0.043487 3.735110 12.994200 -0.242716 4.980390 -88.140100 -5.677800 -71.828300 5.348090 -0.000007 -0.000001 -75.485100 -22.818100 -82.275300 24.328600 0.000019 0.000005 10.398600 -1.020490 -95.543400 22.291600 -0.000001 0.000005 18.772200 5.611470 -12.053500 12.994500 -0.242716 -4.980390 87.832400 6.533720 -71.601100 -5.348130 -0.000001 -0.000004 -65.684200 37.863500 -14.176000 -24.328900 0.000322 -0.000009 2.214820 7.517140 -16.476600 -22.291500 -0.000108 -0.000004 9.742060 5.407730 -3.190170 -2.192480 -6.469440 -0.000000 -175.210000 -6.502880 -0.946028 39.081100 -0.000007 -0.000012 -0.124825 0.294478 22.971500 40.985400 -0.000006 -0.000013 -0.729586 2.607570 -67.497400 11.754300 -0.000000 0.000003 -0.000053 -0.000592 -16.600500 -2.192510 6.469440 -0.000001 179.550000 12.070600 -179.252000 -39.081100 -0.002282 -0.040193 -0.045427 0.131824 20.294300 -40.985400 0.000008 0.000006 3.379060 7.239120 -66.887700 -11.754300 -0.000006 -0.000006 -0.007344 -0.082588 -19.935500
0.000000 0.000000 0.000000 0.000000 0.000000 -0.000000 -1.115410 92.121100 0.598749 88.152400 -1.889710 4.592620 15.735700 0.000005 -0.000001 78.777300 85.661000 -77.458900 8.984550 -0.406207 -0.000000 0.768194 -1.768800 2.646720 16.377300 -0.000001 -0.000001 6.175200 -1.607950 -0.744205 6.456720 -0.000001 -0.000000 4.830060 -0.042951 3.687600 12.994200 -0.242716 4.980390 -88.222200 -5.438930 -71.867800 5.348090 -0.000007 -0.000001 -73.927700 -23.168600 -79.876400 24.328600 0.000019 0.000005 9.575640 -1.133430 -96.688600 22.291600 -0.000001 0.000005 18.402800 5.609950 -11.955700 12.994500 -0.242716 -4.980390 87.817700 6.559610 -71.552700 -5.348130 -0.000001 -0.000004 -65.672300 37.800900 -14.120000 -24.328900 0.000322 -0.000009 2.214230 7.551160 -16.402600 -22.291500 -0.000108 -0.000004 9.718960 5.407060 -3.168130 -2.192480 -6.469440 -0.000000 -175.194000 -6.554730 -1.000930 39.081100 -0.000007 -0.000012 -0.124005 0.292198 22.995900 40.985400 -0.000006 -0.000013 -0.733582 2.604830 -67.495800 11.754300 -0.000000 0.000003 -0.000055 -0.000614 -16.601400 -2.192510 6.469440 -0.000001 179.586000 12.034900 -179.305000 -39.081100 -0.002282 -0.040193 -0.044268 0.128614 20.305200 -40.985400 0.000008 0.000006 3.405870 7.205120 -66.883600 -11.754300 -0.000006 -0.000006 -0.007538 -0.084222 -20.002200
